<?xml version="1.0" encoding="utf-8"?>
<!-- Generator: Adobe Illustrator 24.2.3, SVG Export Plug-In . SVG Version: 6.00 Build 0)  -->
<svg version="1.1" id="Layer_1" xmlns="http://www.w3.org/2000/svg" xmlns:xlink="http://www.w3.org/1999/xlink" x="0px" y="0px"
	 viewBox="0 0 25.6 25.6" style="enable-background:new 0 0 25.6 25.6;" xml:space="preserve">
<style type="text/css">
	.st0{fill:#943724;stroke:#FFFFFF;stroke-width:2;stroke-miterlimit:10;}
	.st1{fill:none;}
	.st2{fill:#FFFFFF;}
</style>
<circle class="st0" cx="12.7" cy="12.8" r="11.8"/>
<rect x="-11.29" y="4.57" class="st1" width="3.41" height="0.26"/>
<rect x="-7.43" y="-0.04" class="st1" width="35.03" height="0.08"/>
<g>
	<path class="st2" d="M14.58,12.69l-0.06-0.18c0.47,0.17,0.89,0.43,1.26,0.77c0.37,0.34,0.67,0.74,0.89,1.2
		c0.22,0.46,0.33,0.96,0.33,1.51c0,0.72-0.19,1.37-0.57,1.96c-0.38,0.59-0.89,1.05-1.54,1.4c-0.65,0.35-1.38,0.52-2.19,0.52
		c-0.8,0-1.53-0.17-2.18-0.52s-1.17-0.81-1.55-1.4c-0.38-0.59-0.57-1.24-0.57-1.96c0-0.59,0.12-1.11,0.36-1.57
		c0.24-0.46,0.55-0.85,0.92-1.17c0.37-0.32,0.77-0.57,1.2-0.74l-0.08,0.2c-0.35-0.17-0.68-0.41-0.99-0.71
		c-0.31-0.3-0.57-0.66-0.77-1.08s-0.3-0.88-0.3-1.39c0-0.72,0.17-1.37,0.52-1.94c0.35-0.57,0.82-1.03,1.43-1.36
		c0.61-0.33,1.28-0.5,2.01-0.5c0.73,0,1.4,0.17,2,0.5c0.6,0.33,1.07,0.79,1.42,1.36c0.35,0.57,0.52,1.22,0.52,1.94
		c0,0.52-0.1,0.99-0.3,1.41c-0.2,0.42-0.46,0.78-0.77,1.07C15.26,12.3,14.93,12.53,14.58,12.69z M12.7,18.73
		c0.91,0,1.65-0.26,2.22-0.78s0.86-1.17,0.86-1.96c0-0.53-0.14-1.01-0.42-1.43c-0.28-0.42-0.65-0.75-1.12-0.99
		c-0.47-0.24-0.98-0.36-1.54-0.36c-0.55,0-1.05,0.12-1.52,0.36c-0.47,0.24-0.84,0.57-1.12,0.99s-0.42,0.9-0.42,1.43
		c0,0.79,0.28,1.44,0.85,1.96C11.06,18.47,11.79,18.73,12.7,18.73z M9.96,9.53c0,0.53,0.13,1,0.38,1.4c0.25,0.4,0.59,0.71,1.01,0.94
		s0.87,0.34,1.35,0.34s0.93-0.11,1.34-0.34c0.41-0.23,0.75-0.54,1-0.94c0.25-0.4,0.38-0.87,0.38-1.4c0-0.77-0.25-1.41-0.76-1.9
		c-0.51-0.49-1.16-0.74-1.96-0.74c-0.81,0-1.47,0.25-1.98,0.74C10.21,8.12,9.96,8.76,9.96,9.53z"/>
</g>
</svg>
